<svg xmlns="http://www.w3.org/2000/svg" viewBox="0 0 180 180">
  <rect width="180" height="180" rx="12" fill="#ffffff"/>
  <rect x="1" y="1" width="178" height="178" rx="12" fill="none" stroke="#E5E7EB"/>
  <!-- Finder patterns -->
  <rect x="16" y="16" width="48" height="48" fill="#111827" rx="4"/>
  <rect x="116" y="16" width="48" height="48" fill="#111827" rx="4"/>
  <rect x="16" y="116" width="48" height="48" fill="#111827" rx="4"/>
  <!-- Simple modules -->
  <g fill="#111827">
    <rect x="74" y="20" width="12" height="12"/>
    <rect x="90" y="20" width="12" height="12"/>
    <rect x="106" y="20" width="12" height="12"/>
    <rect x="74" y="36" width="12" height="12"/>
    <rect x="90" y="36" width="12" height="12"/>
    <rect x="106" y="36" width="12" height="12"/>

    <rect x="74" y="74" width="12" height="12"/>
    <rect x="90" y="74" width="12" height="12"/>
    <rect x="106" y="74" width="12" height="12"/>
    <rect x="122" y="74" width="12" height="12"/>
    <rect x="74" y="90" width="12" height="12"/>
    <rect x="90" y="90" width="12" height="12"/>
    <rect x="106" y="90" width="12" height="12"/>
    <rect x="122" y="90" width="12" height="12"/>

    <rect x="74" y="122" width="12" height="12"/>
    <rect x="90" y="122" width="12" height="12"/>
    <rect x="106" y="122" width="12" height="12"/>
    <rect x="122" y="122" width="12" height="12"/>
    <rect x="74" y="138" width="12" height="12"/>
    <rect x="90" y="138" width="12" height="12"/>
    <rect x="106" y="138" width="12" height="12"/>
  </g>
  <!-- caption -->
  <text x="90" y="170" text-anchor="middle" font-size="12" fill="#6B7280">WeChat QR</text>
</svg>